<svg xmlns="http://www.w3.org/2000/svg" viewBox="0 0 1200 1200" role="img" aria-labelledby="title desc">
  <title id="title">SucessKart</title>
  <desc id="desc">SucessKart learning logo with an open book, student, graduation cap, stars, and wordmark.</desc>
  <defs>
    <linearGradient id="blue" x1="300" x2="790" y1="240" y2="750" gradientUnits="userSpaceOnUse">
      <stop offset="0" stop-color="#18aeea"/>
      <stop offset=".48" stop-color="#0866c8"/>
      <stop offset="1" stop-color="#061f63"/>
    </linearGradient>
    <linearGradient id="green" x1="690" x2="900" y1="540" y2="710" gradientUnits="userSpaceOnUse">
      <stop offset="0" stop-color="#79d91f"/>
      <stop offset="1" stop-color="#129e54"/>
    </linearGradient>
    <linearGradient id="kart" x1="760" x2="1060" y1="805" y2="925" gradientUnits="userSpaceOnUse">
      <stop offset="0" stop-color="#63c820"/>
      <stop offset=".52" stop-color="#16bb8b"/>
      <stop offset="1" stop-color="#109dd8"/>
    </linearGradient>
    <filter id="softShadow" x="-20%" y="-20%" width="140%" height="140%">
      <feDropShadow dx="0" dy="10" stdDeviation="10" flood-color="#0f172a" flood-opacity=".12"/>
    </filter>
  </defs>

  <rect width="1200" height="1200" rx="72" fill="#fff"/>
  <g filter="url(#softShadow)">
    <path d="M404 638c84 2 154 31 210 91 56-60 126-89 210-91l52 122c-108-6-195 22-262 86-67-64-154-92-262-86l52-122Z" fill="#082f78"/>
    <path d="M421 592c76 5 140 31 193 78v65c-58-54-132-82-220-85l27-58Z" fill="#129ee8"/>
    <path d="M807 592c-76 5-140 31-193 78v65c58-54 132-82 220-85l-27-58Z" fill="url(#green)"/>
    <path d="M391 678c92-3 165 23 223 79 58-56 131-82 223-79l35 82c-105-7-191 21-258 84-67-63-153-91-258-84l35-82Z" fill="#072a74"/>
    <path d="M395 718c93 1 166 29 219 85 53-56 126-84 219-85l29 65c-101-2-184 28-248 88-64-60-147-90-248-88l29-65Z" fill="#0b3a88"/>

    <path d="M386 626c-38-113-16-235 60-328 78-96 194-134 318-101-142 0-260 69-318 190-36 75-42 154-21 232l-39 7Z" fill="#16a7e7"/>
    <path d="M825 307c32 115-10 253-131 410l-49-141c85-58 143-148 180-269Z" fill="#0b7cd5"/>
    <path d="M694 717c93-128 134-265 121-410-28 111-84 202-170 269l49 141Z" fill="#06439d"/>

    <path d="M600 336 768 405 600 474 432 405l168-69Z" fill="#062661"/>
    <path d="M484 424v88" stroke="#062661" stroke-width="15" stroke-linecap="round"/>
    <circle cx="484" cy="532" r="13" fill="#062661"/>
    <circle cx="604" cy="463" r="44" fill="url(#blue)"/>
    <path d="M520 533c44 4 81 25 111 63-14 35-30 73-49 113-35-68-91-108-168-120 33-25 69-44 106-56Z" fill="#08337f"/>

    <path d="M791 250c20 47 52 79 99 99-47 20-79 52-99 99-20-47-52-79-99-99 47-20 79-52 99-99Z" fill="#f7b915"/>
    <path d="M894 329c12 28 31 47 59 59-28 12-47 31-59 59-12-28-31-47-59-59 28-12 47-31 59-59Z" fill="#66cb1f"/>
    <path d="M673 339c10 24 26 40 50 50-24 10-40 26-50 50-10-24-26-40-50-50 24-10 40-26 50-50Z" fill="#0798d8"/>
  </g>

  <text x="600" y="900" text-anchor="middle" font-family="Arial, Helvetica, sans-serif" font-size="128" font-weight="900" letter-spacing="-3">
    <tspan fill="#071f5c">Sucess</tspan><tspan fill="#39be26">K</tspan><tspan fill="url(#kart)">art</tspan>
  </text>
  <path d="M180 966h96M924 966h96" stroke="#0874c9" stroke-width="5" stroke-linecap="round"/>
  <text x="600" y="980" text-anchor="middle" font-family="Arial, Helvetica, sans-serif" font-size="28" font-weight="700" letter-spacing="15" fill="#24344d">LEARN  ACHIEVE  SUCCEED</text>
  <circle cx="458" cy="970" r="8" fill="#0874c9"/>
  <circle cx="742" cy="970" r="8" fill="#43bd1f"/>
</svg>
